<svg width="73" height="66" viewBox="0 0 73 66" fill="none" xmlns="http://www.w3.org/2000/svg">
<path d="M73 32.997C73 32.2494 72.6764 31.5531 72.1262 31.0617V19.5288C72.6647 19.1304 73 18.5033 73 17.8108C73 16.9237 72.4497 16.1447 71.626 15.8155C71.4578 15.7106 71.2573 15.6501 71.0429 15.6501H47.4579V4.62042C48.1663 4.16416 48.6152 3.38679 48.6152 2.52131C48.6152 1.47581 47.9603 0.558429 46.9828 0.181097C46.8096 0.0670331 46.6002 0 46.3746 0H14.1559C13.5577 0 13.0726 0.470853 13.0726 1.05145C13.0726 1.63204 13.5577 2.10289 14.1559 2.10289H46.0689C46.0856 2.10776 46.1023 2.11208 46.1196 2.11641C46.3134 2.16182 46.4487 2.32832 46.4487 2.52131C46.4487 2.7143 46.3134 2.88134 46.1196 2.92675C45.6339 3.04081 45.2914 3.46301 45.2914 3.94846V20.7786C45.2914 21.17 45.5147 21.529 45.8717 21.7101C46.2276 21.8912 46.4487 22.2447 46.4487 22.6329C46.4487 23.0205 46.2276 23.374 45.8717 23.5551C45.5147 23.7367 45.2914 24.0957 45.2914 24.4865V41.5129C45.2914 41.9038 45.5147 42.2627 45.8717 42.4444C46.2276 42.6255 46.4487 42.9785 46.4487 43.3666C46.4487 43.7548 46.2276 44.1083 45.8717 44.2894C45.5147 44.4705 45.2914 44.8294 45.2914 45.2208V62.051C45.2914 62.5364 45.6339 62.9586 46.1196 63.0727C46.3134 63.1187 46.4487 63.2852 46.4487 63.4781C46.4487 63.6711 46.3134 63.8376 46.1196 63.8831C46.1023 63.8874 46.0856 63.8917 46.0689 63.8966H2.5976C2.36034 63.8966 2.16652 63.7084 2.16652 63.4781C2.16652 63.2473 2.36034 63.0597 2.59927 63.0597C3.19743 63.0597 3.68253 62.5889 3.68253 62.0083V45.3657C3.68253 44.9057 3.37342 44.4986 2.92062 44.3618C2.4695 44.2256 2.16652 43.8261 2.16652 43.3671C2.16652 42.9082 2.4695 42.5082 2.92062 42.3725C3.37342 42.2357 3.68253 41.8286 3.68253 41.368V24.6319C3.68253 24.1714 3.37342 23.7643 2.92062 23.6275C2.4695 23.4918 2.16652 23.0918 2.16652 22.6329C2.16652 22.1739 2.4695 21.7739 2.92062 21.6382C3.37342 21.5014 3.68253 21.0943 3.68253 20.6338V3.99117C3.68253 3.41058 3.19631 2.93972 2.5976 2.93972C2.36034 2.93972 2.16652 2.75214 2.16652 2.52131C2.16652 2.29102 2.36034 2.10343 2.59927 2.10343H8.49064C9.0888 2.10343 9.5739 1.63258 9.5739 1.05145C9.5739 0.470853 9.0888 0 8.49064 0H2.5976C1.16513 0 0 1.13091 0 2.52131C0 3.53708 0.621551 4.41445 1.51601 4.81341V19.9677C0.584793 20.5316 0 21.5252 0 22.6329C0 23.7405 0.584793 24.7336 1.51601 25.2974V40.702C0.584793 41.2659 0 42.2595 0 43.3671C0 44.4748 0.584793 45.4679 1.51601 46.0317V61.1861C0.622108 61.585 0 62.4624 0 63.4787C0 64.8685 1.16513 66 2.59927 66H60.7422C61.3409 66 61.826 65.5291 61.826 64.9486C61.826 64.368 61.3409 63.8971 60.7422 63.8971H48.579C48.6024 63.7603 48.6158 63.6209 48.6158 63.4787C48.6158 62.6132 48.1669 61.8358 47.4579 61.3796V49.9175H51.8918C52.4899 49.9175 52.975 49.4466 52.975 48.866C52.975 48.2854 52.4899 47.8146 51.8918 47.8146H47.4579V45.776C48.1847 45.1857 48.6158 44.3105 48.6158 43.3671C48.6158 42.4238 48.1847 41.5486 47.4579 40.9588V33.836H66.3239C66.9221 33.836 67.4072 33.3652 67.4072 32.7846C67.4072 32.2034 66.9221 31.7326 66.3239 31.7326H47.4579V25.0417C48.1847 24.4514 48.6158 23.5762 48.6158 22.6329C48.6158 21.6895 48.1847 20.8143 47.4579 20.2245V17.7535H70.7767C70.7806 17.754 70.7845 17.7551 70.7878 17.7562C70.8006 17.7589 70.8335 17.7746 70.8335 17.8108C70.8335 17.8481 70.8006 17.8638 70.7884 17.867C70.3022 17.9811 69.9596 18.4038 69.9596 18.8893V31.5969C69.9596 31.9877 70.183 32.3467 70.5394 32.5283C70.6814 32.6008 70.8335 32.7619 70.8335 32.9976C70.8335 33.2327 70.6825 33.3933 70.5416 33.4646C70.1841 33.6457 69.9596 34.0052 69.9596 34.3966V47.2534C69.9596 47.6454 70.1835 48.0043 70.5416 48.1854C70.6285 48.2297 70.7026 48.2968 70.7533 48.3757C70.8067 48.4595 70.8335 48.5525 70.8335 48.6525C70.8335 48.8887 70.6814 49.0498 70.5394 49.1223C70.183 49.3039 69.9596 49.6623 69.9596 50.0532V62.7613C69.9596 63.2468 70.3022 63.6695 70.7889 63.7836C70.8051 63.7874 70.8162 63.7971 70.8196 63.802C70.8335 63.8187 70.8335 63.8328 70.8335 63.8382C70.8335 63.8755 70.8006 63.8912 70.7884 63.8944C70.7845 63.8949 70.7806 63.896 70.7767 63.8971H66.3239C65.7257 63.8971 65.2406 64.368 65.2406 64.9486C65.2406 65.5291 65.7257 66 66.3239 66H71.0429C71.2579 66 71.4578 65.9395 71.626 65.8346C72.4497 65.5054 73 64.7258 73 63.8382C73 63.3533 72.8285 62.8759 72.5143 62.4916C72.4007 62.3532 72.2698 62.2299 72.1262 62.1234V50.5883C72.677 50.0969 73 49.4001 73 48.6525C73 48.1643 72.8613 47.687 72.5957 47.2686C72.4648 47.0648 72.3066 46.8799 72.1262 46.7188V34.9329C72.6764 34.442 73 33.7457 73 32.997Z" fill="#86ADEF"/>
</svg>
