<svg width="19" height="19" viewBox="0 0 19 19" fill="none" xmlns="http://www.w3.org/2000/svg">
<path d="M17.0789 2.12558C15.4992 0.653148 12.9453 -0.0603014 9.48679 0.00398691C5.9995 0.069196 3.66841 0.651139 2.15077 1.83545C0.683408 2.98042 0 4.65585 0 7.10809V9.61082C0 12.5058 1.63166 15.6885 4.75013 16.1701C5.11015 16.2261 5.4493 15.9934 5.50776 15.651C5.56622 15.3088 5.32181 14.9863 4.96179 14.9307C2.59681 14.5654 1.32068 11.9172 1.32068 9.61082V7.10809C1.32068 3.59183 2.6911 1.38685 9.51268 1.25928C12.6053 1.20102 14.8374 1.7946 16.1542 3.0221C17.1804 3.97881 17.6792 5.3153 17.6792 7.10809V9.61082C17.6792 13.4006 15.8901 15.0722 11.3011 15.5644H8.04716C7.87204 15.5644 7.70405 15.6306 7.58026 15.7483L5.28747 17.9282C5.02959 18.1734 5.02959 18.5709 5.28747 18.8161C5.41637 18.9386 5.58542 19 5.75438 19C5.92334 19 6.09238 18.9387 6.22128 18.8161L8.32072 16.8201H11.338C11.3623 16.8201 11.3867 16.8188 11.4109 16.8162C14.0372 16.5389 15.8356 15.8891 17.0704 14.771C18.3688 13.5954 19 11.9075 19 9.61073V7.10809C19 4.99035 18.3537 3.314 17.0789 2.12558Z" fill="white"/>
<path d="M9.74881 3.9293C9.7489 3.9293 9.7489 3.9293 9.74909 3.9293C10.8788 3.9293 11.9409 4.34931 12.7398 5.11189C13.5388 5.87455 13.9788 6.88858 13.9787 7.96713C13.9787 8.33673 14.2925 8.63637 14.6797 8.63637C14.6798 8.63637 14.6798 8.63637 14.6798 8.63637C15.067 8.63637 15.3809 8.33681 15.3809 7.96722C15.381 6.53112 14.7952 5.18095 13.7314 4.1655C12.6677 3.15004 11.2535 2.59091 9.74909 2.59091C9.74899 2.59091 9.74871 2.59091 9.74862 2.59091C9.36142 2.59091 9.04761 2.89055 9.04761 3.26015C9.0477 3.62966 9.36161 3.9293 9.74881 3.9293Z" fill="white"/>
<path d="M9.70351 6.4342C10.6138 6.43436 11.3546 7.14137 11.3547 8.01027C11.3548 8.35609 11.6484 8.63645 12.0108 8.63637C12.3731 8.63637 12.6667 8.35592 12.6667 8.0101C12.6664 6.45081 11.3373 5.18207 9.70368 5.18182H9.7036C9.34132 5.18182 9.04769 5.4621 9.04761 5.80793C9.04761 6.15375 9.34123 6.4342 9.70351 6.4342Z" fill="white"/>
<path d="M6.78978 7.21269C6.49323 7.40625 6.41717 7.79263 6.61986 8.07569C6.82256 8.35875 7.22743 8.43128 7.52397 8.2378C7.7572 8.08563 8.30344 7.72913 8.26511 7.01648C8.24082 6.58994 7.83777 5.98094 7.50394 5.54513C7.01563 4.90748 6.5948 4.52342 6.25576 4.40437C5.93918 4.29186 5.60812 4.28945 5.27108 4.39741C4.57296 4.62194 4.06609 5.02769 3.80537 5.5708C3.55151 6.09949 3.55714 6.70709 3.82177 7.32826C4.44677 8.79183 5.32173 10.0732 6.42818 11.1422C7.54227 12.1927 8.88455 13.0279 10.4184 13.6248C10.7504 13.7537 11.0787 13.8182 11.3944 13.8182C11.697 13.8182 11.988 13.7589 12.2592 13.6403C12.8281 13.3913 13.2531 12.9076 13.4886 12.2404C13.6014 11.9194 13.5988 11.6035 13.4819 11.3034C13.3563 10.9775 12.9539 10.5759 12.286 10.1098C11.8293 9.7911 11.1913 9.40638 10.7427 9.38311C9.99769 9.34735 9.62456 9.86785 9.46515 10.0905C9.26236 10.3735 9.33825 10.7599 9.6348 10.9536C9.93142 11.1472 10.3361 11.0747 10.539 10.7916C10.6098 10.6929 10.6502 10.648 10.6733 10.6284C11.0385 10.74 12.0797 11.4703 12.2671 11.7501C12.2717 11.768 12.2728 11.7952 12.2554 11.8448C12.1734 12.0773 12.0134 12.3818 11.7172 12.5114C11.4397 12.6326 11.1244 12.5583 10.9092 12.4747C9.53471 11.9398 8.33475 11.1943 7.34808 10.264C6.3679 9.31696 5.58687 8.17156 5.02684 6.86009C4.93906 6.6541 4.86109 6.353 4.98815 6.0884C5.12389 5.80567 5.4429 5.65284 5.68575 5.57469C5.73762 5.55813 5.76615 5.55904 5.78593 5.56359C6.07917 5.74283 6.84372 6.73615 6.96081 7.08478C6.94017 7.10655 6.89325 7.14521 6.78978 7.21269Z" fill="white"/>
</svg>
